<svg height="auto" viewBox="0 0 2000 400" xmlns="http://www.w3.org/2000/svg">
  <path
    d="M0 400h94.118v-4.426H0ZM117.647 400h94.118v-24.422h-94.118ZM235.294 400h94.118v-30.888h-94.118ZM352.941 400h94.118v-59.36H352.94ZM470.588 400h94.118v-61.752h-94.118ZM588.235 400h94.118v-63.831h-94.118ZM705.882 400H800V258.173h-94.118ZM823.53 400h94.117V239.014H823.53ZM941.176 400h94.118V216.096h-94.118ZM1058.824 400h94.117V229.863h-94.117ZM1176.47 400h94.118V166.804h-94.117ZM1294.118 400h94.117V242.621h-94.117ZM1411.765 400h94.117V129.844h-94.117ZM1529.412 400h94.117V78.33h-94.117ZM1647.059 400h94.117V202.887h-94.117ZM1764.706 400h94.118V101.73h-94.118ZM1882.353 400h94.118V143.243h-94.118Z"
    fill="#f3f0f0" />
</svg>
